<?xml version="1.0" encoding="UTF-8"?>
<svg id="Livello_2" data-name="Livello 2" xmlns="http://www.w3.org/2000/svg" xmlns:xlink="http://www.w3.org/1999/xlink" viewBox="0 0 217.83 217.83">
  <defs>
    <style>
      .cls-1, .cls-2 {
        fill: #fff;
      }

      .cls-2 {
        fill-rule: evenodd;
      }

      .cls-3 {
        fill: none;
        stroke: #fff;
        stroke-miterlimit: 10;
        stroke-width: 2.83px;
      }

      .cls-4 {
        clip-path: url(#clippath);
      }
    </style>
    <clipPath id="clippath">
      <circle class="cls-3" cx="108.92" cy="108.92" r="107.5"/>
    </clipPath>
  </defs>
  <g id="Livello_1-2" data-name="Livello 1">
    <g>
      <g class="cls-4">
        <g>
          <path class="cls-1" d="m84.03,46.1l-1.23-21.14-1.23,21.14c.41-.02.81-.04,1.23-.04s.82.02,1.23.04Z"/>
          <path class="cls-1" d="m73.55,14.64l3.11,26.59c1-.24,2.01-.42,3.05-.54l-6.17-26.05Z"/>
          <path class="cls-1" d="m68.38,27.51l6.08,20.3c.75-.33,1.51-.61,2.3-.85l-8.38-19.45Z"/>
          <path class="cls-1" d="m56.15,20.97l12.04,23.96c.86-.57,1.75-1.09,2.68-1.57l-14.72-22.39Z"/>
          <path class="cls-1" d="m55.69,34.83l12.69,17.04c.59-.57,1.21-1.1,1.87-1.6l-14.56-15.44Z"/>
          <path class="cls-1" d="m41.96,32.87l19.57,18.45c.61-.84,1.27-1.64,1.98-2.4l-21.55-16.05Z"/>
          <path class="cls-1" d="m46.28,46.05l17.81,11.71c.36-.74.77-1.46,1.22-2.15l-19.02-9.56Z"/>
          <path class="cls-1" d="m32.71,48.91l24.79,10.68c.29-1.01.63-1.99,1.03-2.95l-25.81-7.74Z"/>
          <path class="cls-1" d="m41.27,59.82l20.82,4.93c.08-.83.22-1.64.4-2.44l-21.22-2.49Z"/>
          <path class="cls-1" d="m56.51,65.58l-27.02,1.57,27.06,1.57c-.04-.62-.07-1.25-.07-1.89,0-.42.01-.84.03-1.25Z"/>
          <path class="cls-1" d="m41.27,74.47l21.34-2.5c-.2-.8-.35-1.61-.45-2.44l-20.88,4.94Z"/>
          <path class="cls-1" d="m124.35,59.82l-21.22,2.49c.18.8.32,1.61.4,2.44l20.82-4.93Z"/>
          <path class="cls-1" d="m32.71,85.38l26.06-7.81c-.43-.95-.8-1.93-1.12-2.94l-24.95,10.75Z"/>
          <path class="cls-1" d="m132.91,48.91l-25.82,7.74c.4.95.74,1.94,1.03,2.95l24.79-10.68Z"/>
          <path class="cls-1" d="m46.28,88.24l19.27-9.68c-.47-.69-.89-1.41-1.27-2.15l-18,11.83Z"/>
          <path class="cls-1" d="m119.34,46.05l-19.02,9.56c.44.69.85,1.4,1.22,2.15l17.81-11.71Z"/>
          <path class="cls-1" d="m41.96,101.42l21.9-16.31c-.73-.76-1.42-1.56-2.06-2.4l-19.84,18.71Z"/>
          <path class="cls-1" d="m123.65,32.87l-21.55,16.05c.71.76,1.37,1.56,1.98,2.4l19.57-18.45Z"/>
          <path class="cls-1" d="m109.92,34.83l-14.56,15.44c.65.5,1.28,1.03,1.87,1.6l12.69-17.04Z"/>
          <path class="cls-1" d="m109.47,20.97l-14.72,22.39c.93.47,1.82.99,2.68,1.57l12.04-23.96Z"/>
          <path class="cls-1" d="m97.24,27.51l-8.38,19.45c.79.24,1.56.52,2.3.85l6.08-20.3Z"/>
          <path class="cls-1" d="m92.07,14.64l-6.17,26.05c1.04.12,2.06.3,3.05.54l3.11-26.59Z"/>
        </g>
        <g>
          <g>
            <path class="cls-2" d="m45.53,195.34c-4.98-16.77,9.36-21.34,20.46-14.28,8.27,5.26,12.67,23.47,28.3,14.88,9.97-5.48,16.66-2.47,19.12,4.89-3.91-4.13-9.2-6.58-19.09-.96-20.74,11.79-23.24-7.26-30.7-11.88-8.23-5.09-16.57-2.77-18.08,7.35Z"/>
            <path class="cls-2" d="m52.52,201.1c-4.54-4.68-1.85-15.07,7.97-13.11,6.67,1.33,9.69,10.36,16.59,13.64-6.92-.21-12.06-9.54-17.57-9.53-5,.01-8.19,5.4-6.99,9Z"/>
          </g>
          <g>
            <path class="cls-2" d="m133.58,196.12c-4.98-16.77,9.36-21.34,20.46-14.28,8.27,5.26,12.67,23.47,28.3,14.88,9.97-5.48,16.66-2.47,19.12,4.89-3.91-4.13-9.2-6.58-19.09-.96-20.74,11.79-23.24-7.26-30.7-11.88-8.23-5.09-16.57-2.77-18.08,7.35Z"/>
            <path class="cls-2" d="m139.14,204.6c-4.54-4.68-1.85-15.07,7.97-13.11,6.67,1.33,9.69,10.36,16.59,13.64-6.92-.21-12.06-9.54-17.57-9.53-5,.01-8.19,5.4-6.99,9Z"/>
          </g>
          <g>
            <g>
              <path class="cls-2" d="m86.74,196.59c-3.58-20.45,13.94-23.89,26.07-14.05,9.04,7.33,11.74,29.4,31.35,21.41,12.51-5.1,19.99-.65,21.88,8.37-4.04-5.4-9.95-9.02-22.39-3.74-26.06,11.07-26.42-11.73-34.59-18.19-9.01-7.13-19.16-5.53-22.33,6.21Z"/>
              <path class="cls-2" d="m86.74,196.59c-3.58-20.45,13.94-23.89,26.07-14.05,9.04,7.33,11.74,29.4,31.35,21.41,12.51-5.1,19.99-.65,21.88,8.37-4.04-5.4-9.95-9.02-22.39-3.74-26.06,11.07-26.42-11.73-34.59-18.19-9.01-7.13-19.16-5.53-22.33,6.21Z"/>
            </g>
            <g>
              <path class="cls-2" d="m96.71,214.76c-5.39-5.55-2.82-18.27,8.84-15.94,7.92,1.58,12.13,12.68,20.32,16.57-8.21-.26-14.31-11.33-20.86-11.31-5.94.02-9.73,6.41-8.3,10.68Z"/>
              <path class="cls-2" d="m96.71,214.76c-5.39-5.55-2.82-18.27,8.84-15.94,7.92,1.58,12.13,12.68,20.32,16.57-8.21-.26-14.31-11.33-20.86-11.31-5.94.02-9.73,6.41-8.3,10.68Z"/>
            </g>
          </g>
          <path class="cls-2" d="m113.74,212.75c-3.22-7.24-10.91-7.02-12.46.28,3.45-2.81,7.88-2.51,12.46-.28Z"/>
        </g>
        <path class="cls-1" d="m72.73,85.32c-.04-.12.2-.34.31-.47,1.2-.98,1.45-2.33,2.22-3.62,1.2-2.27,3.24-4.11,5.26-5.62,1.74-1.59,3.88-3.29,5.84-4.65,1.77-1.36,3.59-3.36,5.26-4.97.95-.89,1.45-2.09,2.67-2.94.67-.43,1.27-.38,2.02-.67.81-.33,1.79.3,2.4.65,0,0,1.09.61,1.09.61l.14.07c.09.04-.03,0,0,.01.2.04.5.02.75,0,.42-.01,1.51-.12,1.94-.08.43.03.97.15,1.08.71,0,0-1.13.2-1.13.2-.47-3.44-1.52-6.85-3.45-9.73-3.8-5.96-11.2-8.08-17.88-7.32-10.05.88-18.12,10.28-17.75,20.3.25,6.72,4.06,13.24,9.24,17.51h0Zm.06.28c-3.24-1.62-5.97-4.32-8.01-7.31-4.3-6.08-5.22-14.59-1.77-21.34,4.93-10.53,18.52-14.88,28.84-9.86,6.85,3.12,10.45,10.25,11.86,17.27,0,0-1.13.2-1.13.2.02.15.13.25.17.27.03.02.04.02.02.02-.23-.03-.49,0-.75.01-.73.06-1.62.25-2.35.15-.28-.08-1.31-.46-1.61-.57-.39-.12-.9-.36-1.14-.33.03,0,.07,0,.02.03-.36.25-1.06.43-1.45.69-1.12,1.59-2.28,3.29-3.82,4.66-2.83,3.11-6.75,5.16-10.01,7.69-2.08,1.31-3.98,2.68-5.44,4.67-.92,1.19-1.47,2.59-2.91,3.31-.2.12-.35.3-.53.44h0Z"/>
        <g>
          <g>
            <path class="cls-1" d="m188.95,120.29c.78-.59-4.45-4.99-5.97-6.07,2.49,4.06,5.18,6.65,5.97,6.07Z"/>
            <path class="cls-1" d="m86.97,72.99c1.42-.54,6.02-3.82,6.7-4.26.68-.44,2.49,1.71,3.28,3.28.78,1.57,2.93,3.52,2.93,3.52,0,0-1.76-2.79-1.86-4.16-.1-1.37-1.03-2.4-1.76-3.18-.73-.78-1.61-2.74-.73-2.89,5.15-.86,9.05,5.18,11.2,8.32-.93-1.37-1.91-5.33-1.91-5.33,0,0,4.06,3.96,4.16,5.43.1,1.47-.83,4.79,3.72,9.83-2.36-4.14-2.35-12.86-2.35-12.86l7.95,7.95s1.93,7.31,5.75,11.56c-2.05-4.21-1.86-7.99-1.86-7.99-.57-.4-1.07-.79-1.47-1.16-3.28-2.98-7.19-8.07-11.25-11.59s-11.69-6.6-15.31-6.11c-2.1,3.91-4.25,6.8-10.03,10.22-1.75,1.04-3.86,3.25-5.96,5.82.06-.05,7.39-5.87,8.8-6.41Z"/>
            <path class="cls-1" d="m178.39,113.71c.24.22,5.28,5.31,5.28,5.31,0,0-4.26-7.39-4.7-7.48-.44-.1-2.1.24-2.49.15-.39-.1-5.53-4.5-5.53-4.5.15.05,3.77,6.65,5.14,6.85,1.37.2,2.05-.54,2.3-.32Z"/>
            <path class="cls-1" d="m171.2,119.07l-4.89-6.11,4.84,10.03,1.17-.78s3.77,6.31,3.77,6.16-2.05-9.29-2.05-9.29h-2.84Z"/>
            <path class="cls-1" d="m108.12,86.49c-.68-.98-4.47-6.29-4.47-6.29,1.63,4.96,3.33,7.7,3.75,8.25.42.55,2.22.03,3.62.65,1.4.62,5.09,5.02,5.09,5.02,0,0-2.9-5.12-4.37-6.65-1.47-1.53-2.93,0-3.62-.98Z"/>
            <path class="cls-1" d="m156.51,127.48s-3.16-7.27-3.23-8.15c-.07-.88,2.61-4.3,1.83-5.18-.78-.88-3.16-4.79-2.87-6.39-1.08,2.22,1.04,5.58,1.37,6.75s-2.74,3.62-2.9,5.32c-.16,1.7,5.8,7.66,5.8,7.66Z"/>
            <path class="cls-1" d="m263.38,160.9l-.83,2.65s-5.9-4.63-6.62-5.12c-.71-.49-.81-1.73-3.06-3.26-2.13-1.46-4.46-3.78-4.71-4.02.16.29,1.55,2.68,3.44,5.13,2.02,2.6,2.54,7.04,2.08,7.1-.45.07-2.64-.55-3.62-1.4-.97-.85-4.53-7.17-6.09-8.02-1.57-.85-2.45-1.7-5.32-5.71,1.7,4.37,4.57,6.62,4.83,7.34.26.72,0,2.12,0,2.12l-1.46-.51c.16.29,2.76,4.97,4.78,7.62,2.09,2.74,2.12.98,3.92,2.51,1.79,1.53,3.62,4.03,3.62,4.03,0,0-3.2-2.5-4.37-3.28-1.18-.78-2.32-.62-3.13-1.08-.82-.45-1.24-1.59-3.04-3.32-1.79-1.73-5.39-4.8-6-6.34-.62-1.54-3.65-4.96-5.09-6.11-1.44-1.15-3.3-3.03-3.3-3.03,0,0,.17.75,1.15,1.88.97,1.12.34,2.57.95,4.92.57,2.19,2.91,4.4,3.2,4.66-.31-.24-2.77-2.26-3.3-2.81-.56-.58-1.17-.12-2.25-1.71-1.07-1.59.15-3.03-.8-3.54-.96-.52-1.96-3.18-2.25-4.48-.3-1.3,1.44-3.28.48-4.65-.95-1.37-4.3-7.5-4.47-7.58-.17-.07,2.59,8.59,2.59,8.59,0,0-.76,1.27-1.22,2.54-.47,1.27-.49,3.79-.49,3.79,0,0-1.32-2.59-2.08-3.28-.76-.68-1.96-.29-2.79-.61-.83-.32-6.5-5.18-6.5-5.18,0,0,4.84,6.18,5.84,6.92,1,.73,1.18-.34,2.08.41.91.76,2.3,4.6,3.64,6.34,1.35,1.73.49,3.08,2.06,5.21,1.56,2.13,2.44,2,3.57,3.03,1.12,1.03.66,2.35.93,4.08.26,1.67,3.01,4.41,3.22,4.62-.31-.14-5.15-2.43-5.86-3.05-.74-.64-.15-1.57-1.27-2.54-1.13-.98-3.87-2.6-5.31-4.31-1.44-1.71-2.13-4.23-2.42-5.5-.3-1.27-1.1-1.49-1.74-2.52-.63-1.03-.32-1.96-.89-2.57-.58-.61-2.43-1.54-2.43-1.54,0,0,1.73,1.52,1.9,2.3.17.78-.09,1.37.35,2.1.44.74-.03,1.28-.22,2.06-.2.78.36,3.5.36,3.5,0,0-3.5.48-4.91,1.19-1.42.71-3.33,2.94-3.89,2.89-.56-.05-4.38-2.57-4.75-2.47-.36.1-.49.71.44,1.76s2.64,3.69,1.69,4.33c-.95.63-3.28,3.79-4.94,3.69-.83-.31-.02-3.96.02-4.74.03-.79-.62-1.31-1.99-3.88-1.37-2.58-2.06-7.8-2.06-7.8l3.1,3.66,4.27-2.45s-2.83-2.64-3.65-3.29c-.81-.66-1.92,1.3-3,.16-1.05-1.1-3.1-6.13-3.22-6.44.24.26,4.08,4.46,4.3,4.68.23.23.91-.1,1.79-.33.88-.23,3.52,2.48,4.76,3.79,1.24,1.3,7.04,4.36,7.04,4.36,0,0-.71-1.59-2.38-3.42-1.61-1.77-3.89-6.01-4.03-6.28l3.97,2.99.91-2.55c-2.02-.75-4.86-4.14-5.83-4.95-.94-.79-5.05-.01-5.4.05l4.25-4.03s-1.4-2.77-2.54-5.35c.16,0,9.52,9.16,9.52,9.16l-3.32-5.64,3.75-3.42s-2.84-3.78-1.96-4.21c.85-.41,8.7,7.12,9.18,7.58-.29-.5-5.79-9.65-6.8-12.34-.98-2.6-2.39-5.88-2.56-6.28.3.4,4.25,5.71,7.19,8.43-3.06-4.82-2.97-8.38-2.8-10.1.16-1.73,1.24-3.79.39-4.05-.85-.26-1.96,1.63-5.19,3.13s-5.44,2.02-6.36,3.26c-.91,1.24-2.9,3.46-4.07,4.73-1.18,1.27-1.01,1.93-1.05,3.13-.03,1.17-4.65,4.73-4.94,4.95.23-.25,4.09-4.37,3.67-5.6-.42-1.27.82-3.13.82-3.13,0,0-6.17,3.55-7.24,4.47-1.08.91-3.69,4.43-4.24,6.55-.55,2.12-.52,5.32-.82,7.08-.29,1.76-3.16,4.76-5.08,9.98.29-2.71,1.76-6.72,2.48-8.32.71-1.6.45-2.35.48-3.78.04-1.44.95-5.12,1.86-6.56.92-1.43,1.41-3.42,3.17-4.76,1.76-1.33,8.18-5.18,9.65-6.16,1.47-.98,2.49-1.97,3.42-3.15.93-1.17,6.02-3.37,8.22-4.5,2.2-1.12,4.79-3.91,6.11-3.91s7.75,8.72,8.47,10.35c.71,1.63,2.87,5.51,4.04,7.67,1.17,2.15.52,3.58.52,5.02s3.74,4.49,3.97,4.68c-.15-.23-2.57-3.91-2.5-5.04.06-1.18.72-3.39-.62-5.68-1.34-2.28-2.02-4.79-2.02-4.79,0,0,2.02,1.08,3.06,1.96,1.05.88.65,3.29,3.69,7.92,3.03,4.63,3.85,8.74,5.02,9.88,1.17,1.14,2.09.59,4.69,2.87,2.53,2.21,5.98,7.46,6.19,7.78-.2-.46-3.49-7.86-4.69-9.44-1.23-1.63-4.23-3.46-4.5-5.41-.06-.48.14-1.24.49-2.12-1.95-.71-3.29-1.28-3.29-1.28,0,0-4.76-7.56-5.02-10.23-.26-2.68-2.41-1.9-4.04-3.27-1.64-1.37-12.2-13.5-12.2-13.5,0,0-10.7,6.33-14.74,8.09-.79.34-1.7.46-2.72.35l.18.99s-8.93,7.07-12.38,8.99c-3.44,1.92-4.58,7.86-4.58,7.86,0,0-6.06-5.34-6.26-5.34s3.51,10.73,3.51,10.73l-1.53,1.26c-1.55-2.1-3.02-1.43-4.78-2.93-1.71-1.45-5.25-7.6-5.47-7.98.08.3.96,3.41,2.14,7.14,1.24,3.91,4.08,7.04,4.08,7.04l-4.24,4.43s-1.67-2.02-1.73-4.43c-.07-2.41-1.76-6.98-5.09-8.28,4.24,5.28,2.28,6.85,2.41,11.02.13,4.17,1.92,7.38,1.92,7.38,0,0-.62,1.16-.75,1.39-.14.23-2.93.03-2.93.03-1.63-.06-2.48-2.67-2.48-2.67,0,0-1.5.78-3.19,1.37-1.7.59-1.76,2.02-3.46,4.37-1.69,2.35-3.58,6-3.58,6l1.17-11.68c-2.41-.91-4.24-2.02-6.2-6.97-.06,3,1.18,6.45,2.35,6.84,1.18.4,1.5,1.44.52,4.83-.97,3.39-3.78,5.35-5.15,6.78-1.37,1.44-1.63,5.87-1.63,5.87,0,0-.72-3.45-2.22-6.39-1.5-2.93-.52-5.09-.52-5.09,0,0-.65.13-1.89-1.3-1.24-1.43-.91-5.02-.91-5.02,0,0-2.42.39-3.2-1.5-.78-1.89.26-5.35-1.69-12.13,1.76,2.35,2.87,5.8,3.46,7.95.59,2.16,3.25,3.27,4.56,3.59,1.26.32,3.69,4.43,3.84,4.69l-2.08-5.73c-3.2-2.02-4.04-6.46-4.24-10.18-.2-3.71,1.11-5.87.39-9.37-.72-3.51-1.76-2.17-2.47-4.26-.71-2.08,1.23-3.39,1.04-4.69-.2-1.31-2.03-4.5-1.04-7.76,0,1.69.91,3.32,2.14,5.34,1.24,2.03,1.44,2.74,1.5,4.77.07,2.02,1.96,3.06,3.07,7.3,1.07,4.08,4.61,8.95,4.88,9.31-.18-.44-3.12-7.47-3.12-8.92s.85-4.11.78-5.35c-.06-1.24-1.95-1.76-1.95-2.47s2.28-4.31,2.8-4.31,5.24,8.35,5.66,9.08c-.33-1.11-5.6-18.76-5.92-19.84-.33-1.11-1.83-.65-2.22-1.63-.39-.98,0-1.83.13-4.17.13-2.28-1.34-6.16-1.42-6.39.2.18,2.61,2.32,2.86,4.95.26,2.74,1.17,3.91,1.82,3.85.66-.07.79-1.76,1.37-1.66.55.1,2.42,2.73,2.66,3.06-1.02-1.85-3.17-13.61-3.3-14.34l2.34,6.03,1.63-2.29,4.16,7.51c-.09-.51-1.61-8.79-3.51-10.18-1.95-1.44-2.54-2.54-2.8-3.39-.26-.85-2.15-1.86-2.15-1.86l.45-2.71c-2.35.65-8.67,5.22-9.85,6.26-1.17,1.05-.65,3-2.47,4.31-1.83,1.3-1.9,1.69-3.4,5.28s-1.69,6.33-11.02,8.41c6.54-2.95,9.26-8.93,9.26-8.93,0,0-12.06,4.63-13.37,6.06-1.3,1.44-4.76,13.24-4.76,13.24v-5.48c-4.37,1.37-6.71,6.85-7.04,8.94-.33,2.09-1.96,4.7-3.46,6.65-1.5,1.96-4.82,2.02-9.58,4.96.81-1.53,5.39-7.76,8.18-8.53,2.79-.77,3.47-3.19,4.31-6.03.83-2.84,3.52-6.07,3.71-6.85.2-.78,2.35-.64,3.82-2.25,1.47-1.61,2.88-5.33,4.16-6.16,1.27-.83,11.83-5.48,13.4-6.36,1.56-.88,2.05-2.35,3.62-4.21,1.56-1.86,3.67-4.64,6.45-6.6,2.79-1.96,6.9-4.65,9.44-5.87,9.35.98,12.09,6.36,12.67,8.07.59,1.71-.73,6.26-.63,7.83.09,1.56,4.11,4.5,4.64,7.14.54,2.64,2.99,4.99,2.99,4.99,0,0-1.67-3.38-2.3-6.7-.64-3.32-2.4-4.41-2.4-4.41,0,0-.1-3.32.69-5.91,2,.48,12.42,11.39,12.42,11.39l-4.78-9.14h0c-2.46-1.56-4.92-3.29-7.02-5.27-5.94-5.61-4.57-5.61-8.16-7.5-3.58-1.89-6.01-2.5-8.31-2.54-2.3-.05-12.03,7.92-12.03,7.92,0,0-.4-.18-1.05-.49h0s-3.36,4.86-3.36,4.86c0,0-4.4,3.17-5.51,2.58s-8.61-7.7-8.61-7.7l6.85,10.96-3.91,2.02-4.76-5.54,1.11,4.57-5.93-6.52,5.17,10.16-3.17,1.8-2.5,3.5-5.28,6.29-4.07,4.11-12.33,4.79s1.96-5.32,1.37-8.12c-.59-2.8-2.45-7.96-2.45-7.96,0,0,1.17,1.04,3.62,5.28,2.45,4.24,5.74,6.29,5.74,6.29l-2.12-6.39s3.13-3.36,4.43-4.57c1.66,3.39,2.02,4.79,3.65,4.17,1.54-.58-1.04-6.07-2.12-8.32-1.08-2.25,0-4.5-.95-5.48-.95-.98-7.04-.78-7.04-.78l-.91,6.88s-1.79-4.01-2.41-5.35c-.62-1.34,0-4.08-.16-4.47-.16-.39-1.4-1.08-1.57-2.35-.16-1.27-.26-5.45-.26-5.45,0,0,2.9,5.51,3.36,5.48.46-.03,1.83-2.09,1.83-2.09.72,2.25,3.49,6.03,3.49,6.03,0,0-1.76-5.41-1.53-6.68.23-1.27-1.14-3.13-1.89-4.37-.75-1.24-1.34-5.58-.78-5.64.55-.07,2.12,4.24,2.84,4.3.72.07,2.18-1.37,2.97-2.12.78-.75,1.27-1.7,2.02-.26s2.97,4.4,2.97,4.4c0,0-2.59-6.7-2.45-8.66.15-1.96-1.27-3.77-2.69-4.26-1.42-.49-3.28.39-5.18,1.66-1.91,1.27-3.91,1.61-5.92,4.4-2.01,2.79-3.96,2.54-9.59,10.47-.1,7.04-3.46,17.67-3.46,17.67,0,0,.42-6.88-.23-9.88-4.3,4.17-8.58,14.22-8.77,16.4-.2,2.18-2.41,3.1-2.25,4.86.16,1.76,2.58,2.4,2.58,3.82s-4.6,9.68-6.21,11.74c-1.61,2.05-10.81,5.48-17.88,8.07,0,0,13.38-7.43,15.97-9.81,2.59-2.38,5.82-8.83,5.33-9.71-.49-.88-1.61-2.45-1.61-2.45l-4.79,5.18s6.16-10.22,7.24-12.91c1.08-2.69,2.79-7.73,4.21-9.78,1.42-2.05,6.31-7.58,6.51-9.44.19-1.85,6.95-14.11,7.04-14.27-4.8,5.89-9.48,13.69-9.48,13.69l-16.86,9.73,14.71-7.98-5.58,9.49-7.09,12.96c.44-4.74,3.96-14.14,3.96-14.14,0,0-11.4,7.09-12.47,8.17-1.08,1.08-8.8,12.72-12.91,18.2-4.11,5.48-8.61,12.23-16.24,17.32l15.6-23.36s10.47-10.92,11.3-12.29c.83-1.37,1.76-2.25,3.23-2.89,1.47-.64,5.49-5.47,5.49-5.47l-8.97,5.18-16.04,21.53s-8.37-2.01-10.71-4.9c-2.35-2.88-3.08-4.25-6.07-3.37-1.79.53-2.99,1.38-3.99,2.22l2.17.05c2.05,1.04,3-.33,4.04,0,1.04.32,2.25,7.17,6.33,9.58-2.87-3.58-2.78-7.27-2.78-7.27l8.35,3.69s-5.57,8.57-8.48,12.22c-2.9,3.66-8.08,6.43-11.51,7.8-3.42,1.37-9.45,5.08-9.45,5.08,0,0,2.57-3.35,4.85-5.51,2.29-2.15,4.44-2.25,5.03-2.67.58-.42.65-.85,1.36-2.09.71-1.24.89-2.18,1.05-3.29.16-1.11,4.11-4.53,4.92-5.8.82-1.28.23-2.06-.52-2.49-.75-.44-2.8-.81-3.52-1.3-.72-.49.06-2.15.75-3.13.68-.98,1.47-2.97.91-3-2.18-.13-4.89,4.7-5.15,6.72-.26,2.02-3.29,4.04-5.18,5.38-1.9,1.34-4.41,6.26-5.71,8.05-1.31,1.8-2.12,5.29-3.52,5.94-1.4.65-3.49,3.75-4.21,5.28-.72,1.53-1.47,3.56-7.08,4.08,1.88-.38,5.03-3.05,5.56-4.34.54-1.29,2.55-5.27,3.84-6.15,1.29-.88,2.28-3.18,3.7-5.82,1.38-2.56,2.88-6.75,2.97-7.01-1.59,1.55-3.1,2.87-4.05,3.44-.94.56-2.09,1.37-3.29,2.27l.67.19s-7.7,11.68-10.96,12.85c-3.26,1.18-3.98,3.2-13.3,13.5l-.82-1.15c-1.8,2.59-3.16,4.48-3.16,4.48h311.87s-4.14-5.74-8.34-12.17ZM44.17,117.74c1.03-1.47,4.94-3.18,5.06-3.01.38.55-.88,2.84-1.35,3.28-.46.44-2.62,1.03-3.01,2.25-.39,1.22-6.6,8-6.6,8,0,0,4.87-9.05,5.89-10.52Zm-24.65,40.06c-.85,1.04-13.57,7.57-21,9.46,2.54-1.89,18.33-9.78,18.98-11.09.65-1.3,5.35-9.39,13.5-14.03-4.43,4.69-10.63,14.62-11.48,15.66Zm48.78-33.98c1.63-2.28,6.07-4.43,6.72-7.24.65-2.8,2.93-12.68,2.93-12.68-.46,3.87-.98,12.48-1.11,14.28-.13,1.79-6.46,5.51-7.37,6.88-.91,1.37-3.78,10.37-3.78,10.37,0,0,.98-9.33,2.61-11.61Zm10.7,15.07c-1.3,1.37-9.1,4.83-15.36,6.49,0,0,11.51-5.97,13.27-7.53,1.76-1.57,5.02-7.04,8.5-8.74,3.48-1.7,12.37-6.72,12.37-6.72l-.81,2.96s-8.85,4.02-11.56,5.91c-2.72,1.89-5.11,6.26-6.41,7.63Zm34.66-15.52c-.72.72-.52,1.83-1.01,4.89-.49,3.07-2.12,5.38-4.21,6.23-2.09.85-6.13,4.43-9.39,7.7,3.26-6.03,10.04-10.24,10.04-10.24-.03-.98,1.27-3.68,1.66-5.04.39-1.35.1-2.92,1.08-4.52.98-1.6,2.87-2.54,9.13-5.97,0,0-6.59,6.23-7.3,6.95Zm58.21,25.24c-1.43.85-2.67,1.6-4.79,4.89l.65-4.04,4.52-5.05,6.41-4.66s-1.57,3.46-2.58,5.22c-1.01,1.76-2.77,2.8-4.21,3.65Zm13.89,6.82c-1.76,2.18-6.1,3.04-6.64,3.92-.54.88-.83,2.71-1.83,2.93.78-1.47-.05-2.49.78-3.4s6.33-2.45,7.31-4.84c.98-2.4,1.94-7.68,1.94-7.68-.07,3.46.2,6.88-1.57,9.07Z"/>
            <path class="cls-1" d="m159.36,112.02c-.2-.93-.39-5.04-1.08-7.58.24,1.96-1.03,6.46-1.03,7.78s4.01,6.41,5.72,10.76c-.1-5.23-3.42-10.03-3.62-10.96Z"/>
            <path class="cls-1" d="m158.28,140.93s-5.77-9.98-7.19-14.28c-.05,4.4,2.93,12.18,2.89,13.43-.05,1.25-.93,2.13-2.49,5.45-1.57,3.33,1.22,7.97,1.22,7.97,0,0-.15-4.11.29-6.46.44-2.35,5.28-6.11,5.28-6.11Z"/>
          </g>
          <path class="cls-1" d="m271.72,174.57H-40.15c-.56,0-1.08-.31-1.34-.82-.26-.5-.21-1.1.12-1.56,0,0,1.36-1.88,3.15-4.46,1.82-2.63,4.37-6.39,6.18-9.38,2.67-4.43,7.21-7.6,10.22-9.7,1-.7,1.87-1.31,2.32-1.72,1.41-1.3,3.88-3.33,6.02-4.93,1.4-1.05,2.52-1.82,3.42-2.36.76-.46,2.14-1.63,3.77-3.23,3.43-3.35,6.02-6.51,6.3-7.22l.21-.55c.63-1.7,1.29-3.45,3.04-4.76.37-.28.74-.61,1.13-.95.22-.19.45-.39.68-.59,1.07-.9,2.44-1.9,4.54-2.52,3.68-1.08,5.1.68,7.06,3.12l.6.74c1.33,1.64,5.84,3.3,8.95,4.15l15.44-20.72c.12-.16.28-.3.45-.4l25.5-14.72c1.47-2.41,10.15-16.37,15.77-19.7,5.32-3.15,7.37-5.72,9.47-9.64.23-.42.64-.71,1.12-.78,4.4-.6,12.48,2.98,16.49,6.46,2.3,2,4.5,4.42,6.62,6.75,1.66,1.84,3.24,3.57,4.66,4.86,2.53,2.3,9.27,5.61,11.65,6.74,3.87-3.13,9.94-7.75,12.28-7.66,2.78.05,5.47.86,8.98,2.71,2.22,1.17,2.78,1.74,4.08,3.2.79.89,1.99,2.25,4.41,4.54,1.75,1.65,3.91,3.27,6.79,5.08,1.45.92,2.88,1.76,4.27,2.59,2.99,1.77,5.57,3.29,7.21,4.86.08.07.15.16.21.25,5.32,7.95,11.02,12.98,15.24,13.45.75.08,1.41,0,1.96-.24,3.9-1.7,14.46-7.94,14.57-8,.62-.37,1.42-.24,1.9.31,4.21,4.84,10.89,12.38,12.03,13.33.37.31.83.46,1.37.63,1.17.38,2.94.96,3.21,3.64.15,1.53,2.66,6.14,4.54,9.17.54.22,1.54.62,2.78,1.07,2.4.88,5.87,2.04,8.8,2.57.64.12,1.13.64,1.22,1.28.22,1.67,1.3,3.17,2.8,5.24.73,1.01,1.56,2.15,2.39,3.48,1.04,1.65,2.25,2.8,3.66,4.13,1.88,1.77,4,3.78,6.44,7.53.04.06.12.18.18.29,4.09,6.25,8.21,11.98,8.26,12.04.33.46.37,1.06.12,1.56-.26.5-.77.82-1.33.82Zm-308.96-3h306.06c-1.61-2.28-4.15-5.96-6.69-9.85-.06-.11-.08-.14-.11-.17-2.28-3.5-4.27-5.38-6.02-7.04-1.49-1.41-2.9-2.74-4.14-4.71-.78-1.24-1.54-2.29-2.28-3.31-1.38-1.9-2.6-3.59-3.13-5.53-2.88-.62-6.04-1.68-8.29-2.51-1.96-.71-3.3-1.28-3.36-1.31-.28-.12-.52-.32-.68-.58-.83-1.31-4.96-8.01-5.24-10.88-.07-.73-.15-.76-1.15-1.08-.69-.22-1.55-.5-2.37-1.19-1.46-1.22-8.92-9.71-11.55-12.72-2.84,1.66-10.47,6.08-13.83,7.54-1.04.45-2.21.6-3.48.47-5.14-.57-11.44-5.9-17.31-14.63-1.4-1.3-3.79-2.71-6.54-4.34-1.41-.83-2.87-1.69-4.35-2.63-3.05-1.92-5.35-3.65-7.25-5.44-2.52-2.38-3.77-3.8-4.6-4.73-1.11-1.26-1.38-1.56-3.23-2.53-3.07-1.62-5.35-2.33-7.64-2.37-1.23.14-6.72,4.03-11.05,7.58-.44.36-1.05.44-1.58.2-.4-.18-9.84-4.53-13.25-7.64-1.53-1.39-3.15-3.17-4.86-5.06-2.06-2.27-4.19-4.62-6.36-6.5-3.46-3-9.98-5.77-13.41-5.8-2.2,3.93-4.63,6.78-10.18,10.07-4.46,2.64-12.29,14.61-14.93,19-.13.22-.32.4-.54.53l-25.56,14.75-15.85,21.28c-.36.48-.97.7-1.55.56-.91-.22-8.94-2.22-11.53-5.42l-.61-.75c-1.91-2.38-2.17-2.62-3.87-2.12-1.56.46-2.58,1.2-3.45,1.93-.21.18-.43.37-.63.55-.44.39-.87.76-1.3,1.09-1.06.79-1.49,1.95-2.03,3.42l-.21.56c-.71,1.88-5.3,6.62-7,8.29-1.3,1.26-3.09,2.92-4.34,3.66-.81.48-1.87,1.21-3.16,2.18-2.06,1.54-4.44,3.49-5.78,4.73-.6.56-1.5,1.19-2.64,1.98-2.8,1.96-7.04,4.91-9.37,8.79-1.85,3.06-4.44,6.88-6.28,9.54-.54.78-1.05,1.5-1.49,2.13Z"/>
          <path class="cls-1" d="m150.72,174.09l-2.19-2.05c.1-.1,9.78-10.47,12.65-14.01,1.92-2.37,2.8-4.54,3.65-6.64.38-.93.73-1.81,1.16-2.67.99-1.98,4.25-4.67,8.09-7.74,1.09-.87,2.32-1.85,2.56-2.14.23-.31.83-1.8,1.3-3,1.12-2.84,2.67-6.73,4.63-9.28.16-.21.38-.38.63-.48,3.44-1.38,6.79-4.12,9.75-6.54,2.38-1.95,4.27-3.49,5.9-4.1l1.06,2.81c-1.17.44-3.06,1.98-5.06,3.62-2.87,2.35-6.41,5.25-10.13,6.84-1.61,2.24-2.97,5.69-3.99,8.24-.85,2.16-1.29,3.22-1.79,3.82-.4.48-1.3,1.21-3,2.56-2.43,1.94-6.51,5.19-7.28,6.74-.38.76-.71,1.59-1.07,2.46-.89,2.2-1.89,4.68-4.1,7.4-2.93,3.62-12.39,13.74-12.79,14.17Z"/>
          <path class="cls-1" d="m55.71,174.01l-2.33-1.88,23.77-29.45c.21-.3,6.55-9.11,13.64-13.81,4.73-3.13,5.32-4.7,6.22-7.08.35-.92.75-1.97,1.4-3.23,2.06-3.95,3.75-5.41,5.55-6.95.37-.31.74-.64,1.13-.99.71-.65,1-1.4,1.36-2.36.55-1.44,1.23-3.22,3.55-4.66,3.06-1.89,12.69-6.47,14.75-7.44.95-1.38,4.54-6.42,7.95-8.93l1.78,2.42c-3.47,2.55-7.43,8.47-7.47,8.53-.15.23-.36.41-.61.53-.12.05-11.6,5.47-14.82,7.45-1.46.9-1.84,1.9-2.33,3.17-.43,1.11-.91,2.38-2.14,3.5-.41.38-.81.72-1.2,1.05-1.7,1.47-3.05,2.62-4.84,6.07-.57,1.09-.92,2.01-1.25,2.9-1.14,3.01-2.1,5.03-7.37,8.52-6.64,4.39-12.85,13.03-12.91,13.12l-23.83,29.52Z"/>
          <path class="cls-1" d="m9.76,174.04l-2.27-1.96,25.44-29.48c4.69-4.8,17.12-18.09,19.06-22.69,2.49-5.89,9.69-18.3,10-18.82.09-.17,2.79-5.17,5.83-9.46l2.45,1.73c-2.93,4.14-5.64,9.14-5.66,9.19-.1.17-7.44,12.81-9.85,18.52-2.56,6.06-18.92,22.84-19.61,23.55l-25.37,29.41Z"/>
          <path class="cls-1" d="m-13.94,174.21l-1.95-2.28c.22-.19,21.85-18.62,27.52-24.1,5.57-5.39,11.57-15.25,13.83-18.96l.07-.11,2.56,1.56-.07.11c-2.31,3.8-8.45,13.9-14.31,19.56-5.74,5.54-26.76,23.47-27.66,24.23Z"/>
        </g>
      </g>
      <circle class="cls-3" cx="108.92" cy="108.92" r="107.5"/>
    </g>
  </g>
</svg>